<?xml version="1.0" encoding="UTF-8" standalone="no"?>
<!-- Created with Inkscape (http://www.inkscape.org/) -->

<svg
   xmlns:osb="http://www.openswatchbook.org/uri/2009/osb"
   xmlns:dc="http://purl.org/dc/elements/1.1/"
   xmlns:cc="http://creativecommons.org/ns#"
   xmlns:rdf="http://www.w3.org/1999/02/22-rdf-syntax-ns#"
   xmlns:svg="http://www.w3.org/2000/svg"
   xmlns="http://www.w3.org/2000/svg"
   xmlns:sodipodi="http://sodipodi.sourceforge.net/DTD/sodipodi-0.dtd"
   xmlns:inkscape="http://www.inkscape.org/namespaces/inkscape"
   width="720"
   height="720"
   viewBox="0 0 190.5 190.5"
   version="1.1"
   id="svg8"
   inkscape:version="0.92.2 (5c3e80d, 2017-08-06)"
   sodipodi:docname="logo_blue-gray.svg"
   inkscape:export-filename="/home/oleman/gimet/src/images/logo-bluegrey.svg.png"
   inkscape:export-xdpi="95"
   inkscape:export-ydpi="95">
  <defs
     id="defs2">
    <inkscape:path-effect
       effect="spiro"
       id="path-effect1517"
       is_visible="true" />
    <inkscape:path-effect
       effect="spiro"
       id="path-effect1513"
       is_visible="true" />
    <inkscape:path-effect
       effect="spiro"
       id="path-effect1494"
       is_visible="true" />
    <linearGradient
       id="linearGradient4526"
       osb:paint="solid">
      <stop
         style="stop-color:#ffffff;stop-opacity:0;"
         offset="0"
         id="stop4524" />
    </linearGradient>
  </defs>
  <sodipodi:namedview
     id="base"
     pagecolor="#404e5c"
     bordercolor="#666666"
     borderopacity="1.0"
     inkscape:pageopacity="0"
     inkscape:pageshadow="2"
     inkscape:zoom="1"
     inkscape:cx="447.29237"
     inkscape:cy="392.3886"
     inkscape:document-units="px"
     inkscape:current-layer="g1445"
     showgrid="false"
     inkscape:snap-bbox="true"
     showborder="true"
     units="px"
     inkscape:pagecheckerboard="true"
     width="720px"
     showguides="false"
     inkscape:guide-bbox="true"
     inkscape:window-width="1920"
     inkscape:window-height="1021"
     inkscape:window-x="0"
     inkscape:window-y="27"
     inkscape:window-maximized="1"
     inkscape:measure-start="354.382,460.586"
     inkscape:measure-end="365.431,460.586">
    <sodipodi:guide
       position="95.25,95.25"
       orientation="0,1"
       id="guide6184"
       inkscape:locked="false"
       inkscape:label=""
       inkscape:color="rgb(0,0,255)" />
    <sodipodi:guide
       position="95.25,95.25"
       orientation="1,0"
       id="guide6186"
       inkscape:locked="false"
       inkscape:label=""
       inkscape:color="rgb(0,0,255)" />
  </sodipodi:namedview>
  <metadata
     id="metadata5">
    <rdf:RDF>
      <cc:Work
         rdf:about="">
        <dc:format>image/svg+xml</dc:format>
        <dc:type
           rdf:resource="http://purl.org/dc/dcmitype/StillImage" />
        <dc:title />
        <cc:license
           rdf:resource="" />
      </cc:Work>
    </rdf:RDF>
  </metadata>
  <g
     inkscape:label="Border white"
     inkscape:groupmode="layer"
     id="layer1"
     transform="translate(0,-106.5)"
     style="display:none">
    <path
       style="opacity:1;fill:#d0ccd0;fill-opacity:1;stroke:#eeeeee;stroke-width:4.15748024;stroke-miterlimit:4;stroke-dasharray:none;stroke-opacity:1"
       d="M 360,64 A 296,296 0 0 0 64,360 296,296 0 0 0 360,656 296,296 0 0 0 656,360 296,296 0 0 0 587.01367,170.12891 57.897292,58.892661 0 0 1 546.69727,186.83594 57.897292,58.892661 0 0 1 488.80078,127.94336 57.897292,58.892661 0 0 1 497.03711,97.794922 296,296 0 0 0 360,64 Z"
       id="path6188"
       inkscape:connector-curvature="0"
       transform="matrix(0.26458333,0,0,0.26458333,0,106.5)" />
    <ellipse
       style="opacity:1;fill:#ffffff;fill-opacity:0;stroke:#eeeeee;stroke-width:1.10000002;stroke-miterlimit:4;stroke-dasharray:none;stroke-opacity:1"
       id="path6190"
       cx="144.64717"
       cy="140.35167"
       rx="15.318659"
       ry="15.582017" />
    <ellipse
       ry="10.191083"
       rx="10.018839"
       cy="201.89021"
       cx="16.788116"
       id="ellipse6192"
       style="opacity:1;fill:#eeeeee;fill-opacity:1;stroke:#eeeeee;stroke-width:1.10000002;stroke-miterlimit:4;stroke-dasharray:none;stroke-opacity:1" />
    <ellipse
       style="opacity:1;fill:#eeeeee;fill-opacity:1;stroke:#eeeeee;stroke-width:1.10000002;stroke-miterlimit:4;stroke-dasharray:none;stroke-opacity:1"
       id="ellipse6194"
       cx="153.04854"
       cy="254.01312"
       rx="10.018839"
       ry="10.191083" />
  </g>
  <g
     style="display:inline"
     transform="translate(0,-106.5)"
     id="g1445"
     inkscape:groupmode="layer"
     inkscape:label="Border - no paint">
    <path
       transform="matrix(0.26458333,0,0,0.26458333,0,106.5)"
       inkscape:connector-curvature="0"
       id="path1437"
       d="M 360,64 A 296,296 0 0 0 64,360 296,296 0 0 0 360,656 296,296 0 0 0 656,360 296,296 0 0 0 587.01367,170.12891 57.897292,58.892661 0 0 1 546.69727,186.83594 57.897292,58.892661 0 0 1 488.80078,127.94336 57.897292,58.892661 0 0 1 497.03711,97.794922 296,296 0 0 0 360,64 Z"
       style="opacity:1;fill:none;fill-opacity:1;stroke:#eeeeee;stroke-width:4.15748024;stroke-miterlimit:4;stroke-dasharray:none;stroke-opacity:1" />
    <ellipse
       ry="15.582017"
       rx="15.318659"
       cy="140.35167"
       cx="144.64717"
       id="ellipse1439"
       style="opacity:1;fill:#ffffff;fill-opacity:0;stroke:#eeeeee;stroke-width:1.10000002;stroke-miterlimit:4;stroke-dasharray:none;stroke-opacity:1" />
    <ellipse
       style="opacity:1;fill:#eeeeee;fill-opacity:1;stroke:#eeeeee;stroke-width:1.10000002;stroke-miterlimit:4;stroke-dasharray:none;stroke-opacity:1"
       id="ellipse1441"
       cx="16.788116"
       cy="201.89021"
       rx="10.018839"
       ry="10.191083" />
    <ellipse
       ry="10.191083"
       rx="10.018839"
       cy="254.01312"
       cx="153.04854"
       id="ellipse1443"
       style="opacity:1;fill:#eeeeee;fill-opacity:1;stroke:#eeeeee;stroke-width:1.10000002;stroke-miterlimit:4;stroke-dasharray:none;stroke-opacity:1" />
  </g>
  <g
     style="display:none"
     transform="translate(0,-106.5)"
     id="g4798"
     inkscape:groupmode="layer"
     inkscape:label="Border black">
    <path
       transform="matrix(0.26458333,0,0,0.26458333,0,106.5)"
       inkscape:connector-curvature="0"
       id="path4790"
       d="M 360,64 A 296,296 0 0 0 64,360 296,296 0 0 0 360,656 296,296 0 0 0 656,360 296,296 0 0 0 587.01367,170.12891 57.897292,58.892661 0 0 1 546.69727,186.83594 57.897292,58.892661 0 0 1 488.80078,127.94336 57.897292,58.892661 0 0 1 497.03711,97.794922 296,296 0 0 0 360,64 Z"
       style="opacity:1;fill:none;fill-opacity:0;stroke:#c2c2c2;stroke-width:4.15748024;stroke-miterlimit:4;stroke-dasharray:none;stroke-opacity:1" />
    <ellipse
       ry="15.582017"
       rx="15.318659"
       cy="140.35167"
       cx="144.64717"
       id="ellipse4792"
       style="opacity:1;fill:#000000;fill-opacity:0;stroke:#c2c2c2;stroke-width:1.10000002;stroke-miterlimit:4;stroke-dasharray:none;stroke-opacity:1" />
    <ellipse
       style="opacity:1;fill:#c2c2c2;fill-opacity:1;stroke:#c2c2c2;stroke-width:1.10000002;stroke-miterlimit:4;stroke-dasharray:none;stroke-opacity:1"
       id="ellipse4794"
       cx="16.788116"
       cy="201.89021"
       rx="10.018839"
       ry="10.191083" />
    <ellipse
       ry="10.191083"
       rx="10.018839"
       cy="254.01312"
       cx="153.04854"
       id="ellipse4796"
       style="opacity:1;fill:#c2c2c2;fill-opacity:1;stroke:#c2c2c2;stroke-width:1.10000002;stroke-miterlimit:4;stroke-dasharray:none;stroke-opacity:1" />
    <path
       style="fill:#f6f6f6;fill-opacity:1;stroke:none;stroke-width:0.26458332px;stroke-linecap:butt;stroke-linejoin:miter;stroke-opacity:1"
       d="m 142.4988,175.37848 c 0.21235,0.70427 0.7126,1.31704 1.36012,1.66605 0.14034,0.0756 0.28711,0.13934 0.43821,0.19017"
       id="path1511"
       inkscape:connector-curvature="0"
       inkscape:path-effect="#path-effect1513"
       inkscape:original-d="m 142.4988,175.37848 c 0.45363,0.55509 0.90701,1.11044 1.36012,1.66605 0.45311,0.55561 0.29241,0.12652 0.43821,0.19017" />
  </g>
  <g
     inkscape:groupmode="layer"
     id="layer2"
     inkscape:label="Brain"
     transform="translate(0,-106.5)"
     style="display:inline">
    <path
       style="opacity:0.99299999;fill:#92dce5;fill-opacity:1;stroke:#d0ccd0;stroke-width:3.79999971;stroke-linejoin:round;stroke-miterlimit:4;stroke-dasharray:none;stroke-opacity:1"
       d="m 81.98707,258.08347 c -9.217504,-1.55744 -15.353758,-8.61198 -14.261096,-16.39528 0.128416,-0.91472 0.246299,-1.81785 0.261966,-2.00695 0.02197,-0.26513 -0.227285,-0.42436 -1.089169,-0.69579 -0.614708,-0.19358 -1.131888,-0.3532 -1.14929,-0.35471 -0.01739,-0.002 -0.173513,0.60498 -0.346921,1.34775 -0.652284,2.79403 -0.2972,6.88961 0.823645,9.50004 0.208952,0.48665 0.334246,0.88481 0.278433,0.88481 -0.05582,0 -1.001499,-0.46037 -2.101519,-1.02304 -7.404058,-3.78728 -13.193831,-10.51572 -15.689767,-18.23348 -0.515547,-1.59414 -0.723288,-2.00006 -1.156875,-2.26049 -0.902374,-0.54202 -4.176523,-3.80006 -5.217837,-5.19217 -2.135364,-2.85472 -3.463017,-5.64542 -4.335589,-9.11334 -0.574748,-2.28425 -0.808423,-6.96765 -0.46183,-9.2561 0.286679,-1.89284 0.613889,-3.35553 0.747365,-3.34087 0.06053,0.007 0.571094,0.73119 1.134577,1.61007 1.915857,2.98821 4.973919,5.68985 8.38239,7.4054 2.735581,1.37688 5.468454,2.12516 8.901451,2.43728 l 1.357304,0.1234 0.671815,1.0515 c 1.053235,1.64847 1.896097,2.59295 3.280983,3.67655 2.636156,2.06265 5.507987,3.05634 8.833042,3.05634 1.833966,0 4.412095,-0.40661 4.783665,-0.75445 0.09631,-0.0902 -0.01286,-0.63499 -0.259226,-1.2938 -0.332784,-0.88987 -0.490934,-1.11168 -0.7252,-1.01717 -0.858905,0.34651 -3.384912,0.6545 -4.490798,0.54754 -3.121155,-0.30186 -5.345884,-1.32523 -7.466847,-3.43473 -2.589671,-2.57567 -3.658039,-5.3299 -3.470372,-8.94654 0.06562,-1.26452 0.236302,-2.34006 0.481584,-3.03456 1.308312,-3.70442 4.166811,-6.52659 7.708075,-7.61013 0.691546,-0.21159 1.257358,-0.44639 1.257358,-0.52178 0,-0.0754 -0.0954,-0.61207 -0.211992,-1.19264 -0.24949,-1.2423 -0.273064,-1.24855 -2.216855,-0.58743 -4.459785,1.51688 -7.940381,5.27554 -9.23614,9.97404 -0.389346,1.41179 -0.464899,5.61306 -0.121453,6.75364 l 0.213934,0.71047 -1.059364,-0.12306 C 49.16575,209.97562 43.330653,206.01526 40.401562,200.16214 37.366528,194.09733 37.61837,186.74426 41.0506,181.212 c 1.187591,-1.91422 2.630184,-3.62217 4.054812,-4.80066 1.095808,-0.90649 1.212171,-1.07944 1.763803,-2.62156 2.516805,-7.03591 7.338981,-12.93261 13.740808,-16.80268 1.580213,-0.95528 5.22683,-2.65504 5.376007,-2.50586 0.05046,0.0504 0.0062,0.77359 -0.09825,1.60696 -0.326584,2.60456 0.133971,5.00962 1.448463,7.56398 0.913364,1.77488 3.190084,4.04822 4.998323,4.99091 l 1.337734,0.69739 -0.454169,0.78822 c -0.669784,1.16242 -1.346377,3.4421 -1.489126,5.01737 -0.231231,2.55174 0.632624,5.80629 2.112214,7.95772 1.041506,1.51443 1.185541,1.55393 2.164184,0.59346 l 0.825855,-0.81051 -0.795715,-1.16226 c -2.728327,-3.98513 -2.241442,-9.17276 1.18224,-12.59644 1.897389,-1.89739 4.368255,-2.95164 6.933653,-2.95839 l 1.046709,-0.003 0.11546,-0.69854 c 0.0635,-0.38419 0.116382,-0.9836 0.117509,-1.33202 l 0.0021,-0.63349 -1.724172,0.11326 c -2.767999,0.18182 -4.929958,0.97293 -7.170998,2.62403 -0.640606,0.47197 -1.241381,0.85813 -1.33505,0.85813 -0.435834,0 -1.89405,-0.77924 -2.952761,-1.5779 -3.806702,-2.87166 -4.978015,-8.06984 -2.799261,-12.42286 2.651099,-5.29672 9.294817,-8.29225 17.545712,-7.91103 1.445249,0.0668 2.900153,0.17198 3.233122,0.23378 l 0.605393,0.11237 -0.0032,37.74617 c -0.0028,32.1112 -0.04323,37.93491 -0.271122,39.0104 -0.782136,3.69111 -3.720584,6.7942 -7.45607,7.87383 -1.237519,0.35767 -4.236077,0.41947 -5.256733,0.10834 l -0.59985,-0.18285 -0.296439,1.05649 c -0.163039,0.58106 -0.309434,1.14031 -0.325321,1.24276 -0.04821,0.31091 1.713864,0.61516 3.672312,0.63408 3.733782,0.0361 6.81084,-1.25055 9.442265,-3.94813 l 1.094191,-1.1217 v 15.00166 15.00166 l -1.404673,0.20892 c -1.84896,0.27499 -5.577196,0.23453 -7.443404,-0.0808 z"
       id="path4786"
       inkscape:connector-curvature="0" />
    <path
       id="path4741"
       d="m 85.457683,142.60528 c 0.526889,-0.007 1.054127,0.001 1.580598,0.0231 2.105875,0.0871 4.201704,0.39942 6.242134,0.9354 h 0.02111 v 116.27534 h -5.18e-4 l 5.18e-4,0.002 c -4.079855,1.20889 -8.448709,1.39065 -12.61444,0.52275 -2.938339,-0.61217 -5.802205,-1.75212 -8.294024,-3.50798 -1.186141,-0.83581 -2.28101,-1.81273 -3.243,-2.90908 -5.518789,-1.64459 -10.602191,-4.68891 -14.653465,-8.7818 -3.977513,-4.01835 -6.931274,-9.02087 -8.541509,-14.4389 -4.318472,-3.18481 -7.665046,-7.64507 -9.499025,-12.69109 -2.313761,-6.36609 -2.153141,-13.55783 0.432707,-19.81666 -1.256573,-3.81759 -1.497975,-7.96871 -0.586033,-11.90594 1.128655,-4.8729 3.959973,-9.2989 7.891673,-12.38341 1.68517,-5.26886 4.648579,-10.11467 8.581126,-14.00723 4.099817,-4.05813 9.226361,-7.04966 14.771288,-8.63669 1.150224,-1.99746 2.79841,-3.68277 4.681079,-4.96201 2.57186,-1.74754 5.536475,-2.75333 8.511664,-3.27696 1.558296,-0.27427 3.137461,-0.42131 4.718129,-0.44094 z m 0.577807,2.39046 c -1.635588,-0.0139 -3.272132,0.12008 -4.881744,0.40338 -2.726177,0.4798 -5.366089,1.39382 -7.582452,2.89981 -2.207839,1.50018 -4.000024,3.64 -4.820516,6.09035 -0.898815,2.68425 -0.593941,5.79828 0.808823,8.25698 1.256852,2.20298 3.416781,3.91245 5.843375,4.67079 2.600923,-2.60048 6.334332,-3.93999 9.995535,-3.58155 l -0.233072,2.3781 c -2.930873,-0.28695 -6.024952,0.82877 -8.099544,2.91885 -1.781939,1.79523 -2.856935,4.32603 -2.911139,6.85492 -0.05426,2.52887 0.910355,5.10331 2.613748,6.97326 l -1.76582,1.60839 c -2.129691,-2.33793 -3.303625,-5.4723 -3.235801,-8.63413 0.04988,-2.32649 0.773383,-4.6075 2.038519,-6.54518 -2.639843,-1.04414 -4.906118,-2.97933 -6.320851,-5.45902 -1.656698,-2.90382 -2.076012,-6.43307 -1.169499,-9.64362 -4.429471,1.57434 -8.517966,4.12656 -11.857575,7.43221 -3.832026,3.79307 -6.690146,8.58147 -8.210157,13.7546 l -0.0052,-0.002 c -3.788112,2.74705 -6.553857,6.92233 -7.609714,11.48095 -1.379031,5.95383 0.247426,12.59148 4.225219,17.2312 3.529699,4.11708 8.898607,6.64484 14.321598,6.84566 -0.998764,-3.55216 -0.589721,-7.45884 1.173616,-10.7174 2.005036,-3.70524 5.668194,-6.4046 9.801048,-7.22229 l 0.464609,2.34517 c -3.404714,0.67364 -6.512055,2.96226 -8.163851,6.01471 -1.651799,3.05245 -1.870061,6.90496 -0.571632,10.12366 1.130594,2.80263 3.404681,5.16821 6.160835,6.4078 2.756158,1.23956 6.034115,1.37131 8.881093,0.35758 l 0.801102,2.24999 c -3.447158,1.22743 -7.325162,1.07126 -10.66235,-0.42962 -3.014119,-1.35559 -5.496206,-3.77008 -6.957823,-6.72474 -6.452131,0.0763 -12.850957,-2.78471 -17.060378,-7.69462 -1.089667,-1.27099 -2.019536,-2.66691 -2.78354,-4.147 -1.514205,5.10693 -1.377662,10.7229 0.440426,15.72519 1.760126,4.84282 5.075663,9.13001 9.320489,12.05104 l -0.0031,0.005 0.0031,-0.001 c 1.437651,5.33099 4.286818,10.28736 8.171056,14.2115 3.024839,3.05592 6.683827,5.48841 10.664922,7.12041 -0.119807,-0.23152 -0.236245,-0.46541 -0.344726,-0.70335 -1.586334,-3.4793 -1.845375,-7.50702 -0.721353,-11.16194 l 2.282913,0.7018 c -0.946923,3.07907 -0.721554,6.53962 0.61485,9.47073 1.087516,2.38526 2.898727,4.4545 5.079316,5.99104 2.183964,1.53893 4.743488,2.56708 7.404937,3.12158 3.197189,0.6661 6.541726,0.64626 9.736735,-0.0406 v -30.41056 c -1.306764,1.8358 -3.084392,3.32816 -5.14157,4.27409 -2.845684,1.3085 -6.136933,1.53628 -9.135779,0.63235 l 0.690485,-2.28703 c 2.424026,0.73068 5.147404,0.5406 7.447641,-0.51709 2.300226,-1.05771 4.215612,-3.00126 5.238815,-5.31703 0.572958,-1.29676 0.881779,-2.71655 0.898865,-4.13416 h 0.002 v -74.74603 c -1.605878,-0.30745 -3.240501,-0.46924 -4.876079,-0.48313 z"
       style="color:#000000;font-style:normal;font-variant:normal;font-weight:normal;font-stretch:normal;font-size:medium;line-height:normal;font-family:sans-serif;font-variant-ligatures:normal;font-variant-position:normal;font-variant-caps:normal;font-variant-numeric:normal;font-variant-alternates:normal;font-feature-settings:normal;text-indent:0;text-align:start;text-decoration:none;text-decoration-line:none;text-decoration-style:solid;text-decoration-color:#000000;letter-spacing:normal;word-spacing:normal;text-transform:none;writing-mode:lr-tb;direction:ltr;text-orientation:mixed;dominant-baseline:auto;baseline-shift:baseline;text-anchor:start;white-space:normal;shape-padding:0;clip-rule:nonzero;display:inline;overflow:visible;visibility:visible;opacity:1;isolation:auto;mix-blend-mode:normal;color-interpolation:sRGB;color-interpolation-filters:linearRGB;solid-color:#000000;solid-opacity:1;vector-effect:none;fill:#1e1e24;fill-opacity:1;fill-rule:nonzero;stroke:#1e1e24;stroke-width:1.508125;stroke-linecap:round;stroke-linejoin:round;stroke-miterlimit:4;stroke-dasharray:none;stroke-dashoffset:0;stroke-opacity:1;color-rendering:auto;image-rendering:auto;shape-rendering:auto;text-rendering:auto;enable-background:accumulate"
       inkscape:connector-curvature="0" />
    <path
       style="opacity:0.99299999;fill:#779cab;fill-opacity:1;stroke:#d0ccd0;stroke-width:3.79999971;stroke-linejoin:round;stroke-miterlimit:4;stroke-dasharray:none;stroke-opacity:1"
       d="m 102.38838,258.34035 c -0.81961,-0.0764 -1.76263,-0.1996 -2.09561,-0.27376 l -0.605416,-0.13484 V 243.02517 228.1186 l 1.502626,1.41353 c 2.51396,2.36495 5.37855,3.52226 8.74255,3.53203 1.56995,0.005 3.91178,-0.32196 3.91178,-0.54541 0,-0.0455 -0.14148,-0.59162 -0.3144,-1.21359 -0.30907,-1.11166 -0.32408,-1.12908 -0.88481,-1.0269 -2.84635,0.51869 -4.98025,0.26321 -7.23737,-0.86652 -2.661,-1.33187 -4.68518,-3.80753 -5.4437,-6.65783 -0.234566,-0.88148 -0.272561,-6.2991 -0.274466,-39.13668 l -0.0021,-38.11356 1.869466,-0.21258 c 4.59851,-0.5229 9.17906,0.12589 12.96502,1.83636 3.51887,1.58981 6.40773,4.75471 7.23336,7.92453 0.35711,1.37102 0.36402,3.77769 0.0146,5.09044 -0.778,2.92306 -2.91631,5.44335 -5.65662,6.66712 l -0.99094,0.44253 -0.71472,-0.60879 c -2.13777,-1.82093 -4.6021,-2.76936 -7.53026,-2.89812 l -2.03075,-0.0893 0.11889,0.44421 c 0.0654,0.24432 0.12002,0.80047 0.12142,1.23588 l 0.003,0.79167 0.88481,0.003 c 2.39944,0.009 5.4044,1.16984 6.99194,2.70158 3.68181,3.55237 4.23368,8.70998 1.38796,12.97148 l -0.76941,1.1522 0.92149,0.81641 0.92149,0.81642 0.58815,-0.67307 c 1.60024,-1.83134 2.67353,-4.97035 2.66892,-7.80575 -0.004,-2.39798 -0.44135,-4.00336 -1.81884,-6.67497 -0.0393,-0.0762 0.16026,-0.22665 0.44345,-0.33432 0.92306,-0.35095 2.97095,-1.82062 3.85729,-2.76818 2.12695,-2.27389 3.24983,-4.90382 3.42933,-8.03194 0.0601,-1.04707 0.0138,-2.18311 -0.1131,-2.77474 -0.11817,-0.55098 -0.18221,-1.03442 -0.14232,-1.07431 0.10866,-0.10866 3.34315,1.32477 4.65538,2.06312 2.94549,1.65735 6.2606,4.32493 8.35814,6.72557 2.6547,3.03833 5.22836,7.46598 6.31142,10.85804 0.39224,1.22846 0.53057,1.43278 1.45026,2.14216 1.83202,1.41309 3.74792,3.85047 5.01784,6.38363 1.66882,3.32885 2.32849,6.9323 1.92816,10.5326 -0.89851,8.08043 -5.91275,14.27485 -13.5477,16.73635 -1.62219,0.52299 -4.8279,1.09929 -5.02401,0.90318 -0.052,-0.052 5.3e-4,-0.53795 0.1168,-1.07992 0.12388,-0.57761 0.17793,-1.95713 0.13062,-3.33357 -0.0692,-2.01373 -0.16204,-2.58062 -0.65169,-3.98018 -0.31403,-0.89759 -0.85306,-2.11304 -1.19783,-2.70099 -0.87869,-1.49842 -3.52152,-4.10877 -5.09747,-5.03481 -1.31588,-0.77323 -4.28375,-1.87139 -4.49275,-1.6624 -0.0621,0.0622 -0.22016,0.62658 -0.35115,1.25431 -0.17632,0.84488 -0.18296,1.15665 -0.0256,1.20033 2.73574,0.75932 4.21433,1.5957 6.02447,3.40782 2.68261,2.68552 3.8396,6.46542 3.14978,10.29031 -1.16695,6.47055 -7.54656,10.74409 -14.05326,9.41394 -0.8538,-0.17454 -1.5759,-0.28943 -1.60465,-0.25533 -0.2038,0.24175 -0.80955,2.2059 -0.701,2.27299 0.0748,0.0462 0.68005,0.23185 1.34503,0.41251 1.75158,0.47587 5.21509,0.44193 7.102,-0.0696 3.54654,-0.96144 6.73187,-3.36766 8.63237,-6.52094 l 0.55415,-0.91944 1.60138,-0.11367 c 7.31599,-0.51931 14.23103,-4.71907 17.63964,-10.71324 l 0.56732,-0.99764 0.2983,1.31155 c 1.54065,6.77371 0.26117,13.8239 -3.54764,19.54818 -1.20879,1.81671 -4.02198,4.82807 -5.52491,5.9141 -0.99702,0.72047 -1.04197,0.79198 -1.60889,2.5596 -0.71987,2.24455 -2.62199,6.07377 -3.99018,8.03279 -3.11805,4.46452 -7.0001,7.87137 -11.7208,10.28607 -1.11407,0.56986 -2.0553,1.00638 -2.09163,0.97006 -0.0363,-0.0363 0.1708,-0.73537 0.46028,-1.55342 0.73434,-2.07513 1.01481,-4.03171 0.88817,-6.19574 -0.11785,-2.01374 -0.47087,-3.76501 -0.75896,-3.76501 -0.10375,0 -0.68039,0.13798 -1.28143,0.30662 -0.86359,0.24231 -1.06856,0.36929 -0.97728,0.60539 0.56797,1.46914 0.61562,4.94853 0.0956,6.98173 -0.63597,2.48662 -1.68659,4.23666 -3.81597,6.35632 -2.12885,2.11914 -3.67118,3.09097 -6.52313,4.1103 -2.88801,1.03222 -6.59743,1.49344 -9.69136,1.205 z"
       id="path4788"
       inkscape:connector-curvature="0" />
    <path
       style="color:#000000;font-style:normal;font-variant:normal;font-weight:normal;font-stretch:normal;font-size:medium;line-height:normal;font-family:sans-serif;font-variant-ligatures:normal;font-variant-position:normal;font-variant-caps:normal;font-variant-numeric:normal;font-variant-alternates:normal;font-feature-settings:normal;text-indent:0;text-align:start;text-decoration:none;text-decoration-line:none;text-decoration-style:solid;text-decoration-color:#000000;letter-spacing:normal;word-spacing:normal;text-transform:none;writing-mode:lr-tb;direction:ltr;text-orientation:mixed;dominant-baseline:auto;baseline-shift:baseline;text-anchor:start;white-space:normal;shape-padding:0;clip-rule:nonzero;display:inline;overflow:visible;visibility:visible;opacity:1;isolation:auto;mix-blend-mode:normal;color-interpolation:sRGB;color-interpolation-filters:linearRGB;solid-color:#000000;solid-opacity:1;vector-effect:none;fill:#1e1e24;fill-opacity:1;fill-rule:nonzero;stroke:#1e1e24;stroke-width:1.508125;stroke-linecap:round;stroke-linejoin:round;stroke-miterlimit:4;stroke-dasharray:none;stroke-dashoffset:0;stroke-opacity:1;color-rendering:auto;image-rendering:auto;shape-rendering:auto;text-rendering:auto;enable-background:accumulate"
       d="m 104.92394,142.62579 c -0.52689,-0.007 -1.05412,9.9e-4 -1.58059,0.0231 -2.10588,0.0871 -4.201701,0.39942 -6.242127,0.9354 h -0.0211 v 116.27534 h 5.17e-4 l -5.17e-4,0.002 c 4.079857,1.20889 8.448687,1.39065 12.614427,0.52275 2.93834,-0.61217 5.8022,-1.75212 8.29403,-3.50798 1.18614,-0.83581 2.28101,-1.81273 3.24301,-2.90908 5.51878,-1.64459 10.60215,-4.68891 14.65343,-8.7818 3.97751,-4.01835 6.93128,-9.02087 8.54152,-14.4389 4.31848,-3.18481 7.66504,-7.64507 9.49903,-12.69109 2.31375,-6.36609 2.15314,-13.55782 -0.4327,-19.81666 1.25656,-3.81759 1.49799,-7.96871 0.58605,-11.90594 -1.12866,-4.8729 -3.96,-9.2989 -7.89168,-12.38341 -1.68518,-5.26886 -4.64859,-10.11467 -8.58113,-14.00723 -4.09982,-4.05813 -9.22634,-7.04966 -14.77127,-8.63669 -1.15023,-1.99746 -2.79842,-3.68277 -4.68109,-4.96201 -2.57185,-1.74754 -5.53647,-2.75333 -8.51166,-3.27696 -1.55828,-0.27427 -3.13747,-0.42131 -4.71813,-0.44094 z m -0.57779,2.39045 c 1.63557,-0.0139 3.27212,0.12008 4.88173,0.40338 2.72618,0.4798 5.36609,1.39382 7.58246,2.89981 2.20784,1.50018 4.00003,3.64 4.82053,6.09035 0.89881,2.68425 0.59395,5.79828 -0.80881,8.25698 -1.25686,2.20298 -3.4168,3.91245 -5.84339,4.67079 -2.60092,-2.60048 -6.33434,-3.93999 -9.99554,-3.58155 l 0.23307,2.3781 c 2.93086,-0.28695 6.02494,0.82877 8.09954,2.91885 1.78195,1.79523 2.85695,4.32603 2.91114,6.85492 0.0543,2.52887 -0.91036,5.10331 -2.61374,6.97326 l 1.76581,1.60839 c 2.1297,-2.33793 3.30363,-5.4723 3.23581,-8.63413 -0.0499,-2.32649 -0.77338,-4.6075 -2.03853,-6.54518 2.63985,-1.04414 4.90612,-2.97933 6.32085,-5.45902 1.6567,-2.90381 2.07603,-6.43307 1.16952,-9.64362 4.42946,1.57434 8.51793,4.12656 11.85752,7.43221 3.83203,3.79307 6.69015,8.58147 8.21017,13.7546 l 0.005,-0.002 c 3.78811,2.74705 6.55386,6.92233 7.60971,11.48095 1.37904,5.95383 -0.24742,12.59148 -4.22522,17.2312 -3.52969,4.11708 -8.8986,6.64484 -14.32159,6.84566 0.99875,-3.55216 0.5897,-7.45884 -1.17363,-10.7174 -2.00504,-3.70524 -5.66817,-6.4046 -9.80102,-7.22229 l -0.46461,2.34517 c 3.4047,0.67364 6.51205,2.96226 8.16383,6.01471 1.6518,3.05245 1.87006,6.90496 0.57163,10.12366 -1.13059,2.80263 -3.40465,5.16821 -6.16079,6.4078 -2.75617,1.23956 -6.03413,1.37131 -8.88111,0.35759 l -0.80109,2.24998 c 3.44716,1.22743 7.32517,1.07126 10.66236,-0.42962 3.01411,-1.35559 5.49616,-3.77008 6.95778,-6.72474 6.45214,0.0763 12.85096,-2.78471 17.06038,-7.69462 1.08967,-1.27099 2.01954,-2.66691 2.78357,-4.147 1.5142,5.10693 1.37766,10.7229 -0.44043,15.72519 -1.76012,4.84282 -5.07567,9.13001 -9.32049,12.05104 l 0.003,0.005 -0.003,-9.9e-4 c -1.43766,5.33098 -4.28681,10.28735 -8.17105,14.21149 -3.02484,3.05592 -6.68382,5.48841 -10.66492,7.12041 0.11981,-0.23152 0.23624,-0.46541 0.34474,-0.70335 1.58633,-3.4793 1.84537,-7.50702 0.72135,-11.16194 l -2.28291,0.70181 c 0.94692,3.07906 0.72156,6.53961 -0.61485,9.47072 -1.08752,2.38526 -2.89873,4.4545 -5.07932,5.99104 -2.18396,1.53893 -4.74349,2.56708 -7.40494,3.12158 -3.19719,0.6661 -6.54172,0.64626 -9.736756,-0.0406 v -30.41056 c 1.306766,1.8358 3.084426,3.32816 5.141606,4.27409 2.84567,1.3085 6.13692,1.53628 9.13577,0.63235 l -0.69049,-2.28703 c -2.42401,0.73068 -5.1474,0.5406 -7.44764,-0.51709 -2.30022,-1.05771 -4.21561,-3.00126 -5.23882,-5.31703 -0.572979,-1.29676 -0.881793,-2.71655 -0.898883,-4.13416 h -0.0016 v -74.74603 c 1.605883,-0.30745 3.240523,-0.46924 4.876113,-0.48313 z"
       id="path4650"
       inkscape:connector-curvature="0" />
  </g>
</svg>
